<?xml version="1.0" encoding="utf-8"?>
<!-- Generator: Adobe Illustrator 21.0.2, SVG Export Plug-In . SVG Version: 6.00 Build 0)  -->
<svg version="1.1" id="Ebene_6" xmlns="http://www.w3.org/2000/svg" xmlns:xlink="http://www.w3.org/1999/xlink" x="0px" y="0px"
	 viewBox="0 0 25 25" style="enable-background:new 0 0 25 25;" xml:space="preserve">
<style type="text/css">
	.st0{fill:#FFFFFF;}
</style>
<g id="Ebene_67">
	<g>
		<path class="st0" d="M17.762,14.142H8.344l-5.463,3.552v-3.552H0.503C0.168,14.142,0,13.974,0,13.639V3.887
			c0-0.335,0.168-0.503,0.503-0.503h17.259c0.335,0,0.503,0.168,0.503,0.503v9.752C18.264,13.974,18.097,14.142,17.762,14.142
			L17.762,14.142L17.762,14.142z M3.083,6.501v1.341h11.528V6.501H3.083L3.083,6.501z M3.083,11.059h7.574V9.718H3.083V11.059
			L3.083,11.059z M25,10.891v7.44c0,0.335-0.168,0.503-0.503,0.503h-1.776v2.782l-4.222-2.782h-7.339
			c-0.335,0-0.503-0.168-0.503-0.503v-2.346h8.948c0.335,0,0.503-0.168,0.503-0.503v-5.094h4.39C24.832,10.389,25,10.556,25,10.891
			L25,10.891z"/>
	</g>
</g>
</svg>
